<?xml version="1.0" encoding="utf-8"?>
<!-- Generator: Adobe Illustrator 29.3.1, SVG Export Plug-In . SVG Version: 9.03 Build 55982)  -->
<svg version="1.0" id="katman_1" xmlns="http://www.w3.org/2000/svg" xmlns:xlink="http://www.w3.org/1999/xlink" x="0px" y="0px"
	 viewBox="0 0 355.52 67.06" style="enable-background:new 0 0 355.52 67.06;" xml:space="preserve">
<style type="text/css">
	.st0{fill:url(#_x30_FkoZr.tif_00000014627201192444777530000015235401401198820253_);}
	.st1{fill:url(#SVGID_1_);}
	.st2{fill:url(#SVGID_00000135672940673982109830000014761361033639400373_);}
	.st3{fill:url(#SVGID_00000143617814720701577660000000340415673341199028_);}
	.st4{fill:url(#SVGID_00000058584831893750920460000016200452142474958768_);}
	.st5{fill:none;stroke:#FFFFFF;stroke-width:3.3619;stroke-linecap:round;stroke-linejoin:round;stroke-miterlimit:10;}
	.st6{fill:url(#SVGID_00000145060166678657597120000010241622942521741992_);}
	.st7{fill:url(#SVGID_00000168092219500148807920000006215098123276824729_);}
	.st8{fill:url(#SVGID_00000005957772258318755040000013063503603967735178_);}
	.st9{fill:url(#SVGID_00000000200962783798506570000013251985341995502240_);}
</style>
<linearGradient id="_x30_FkoZr.tif_00000134248760499569536720000009630987209792295870_" gradientUnits="userSpaceOnUse" x1="121.6624" y1="35.2186" x2="351.7383" y2="35.2186">
	<stop  offset="8.328000e-04" style="stop-color:#F9B233"/>
	<stop  offset="0.062" style="stop-color:#F4AC39"/>
	<stop  offset="0.141" style="stop-color:#E69C48"/>
	<stop  offset="0.2298" style="stop-color:#CE8262"/>
	<stop  offset="0.3257" style="stop-color:#AD5D86"/>
	<stop  offset="0.4263" style="stop-color:#842DB4"/>
	<stop  offset="0.4731" style="stop-color:#6E15CC"/>
	<stop  offset="0.7382" style="stop-color:#5500A0"/>
	<stop  offset="0.8308" style="stop-color:#500093"/>
	<stop  offset="1" style="stop-color:#430072"/>
</linearGradient>
<path id="_x30_FkoZr.tif_2_" style="fill:url(#_x30_FkoZr.tif_00000134248760499569536720000009630987209792295870_);" d="
	M282.26,24.83c-0.03,0.28-0.05,0.48-0.08,0.73c0.56-0.24,1.07-0.49,1.6-0.69c1.76-0.66,3.57-0.82,5.41-0.46
	c3.29,0.65,5.49,2.8,5.98,6.18c0.73,5.06-0.68,9.46-4.8,12.67c-2.82,2.2-6.09,2.83-9.54,1.61c-0.98-0.35-1.84-1.06-2.8-1.63
	c-0.21,0.92-0.45,1.95-0.69,2.98c-0.7,3.05-1.4,6.1-2.1,9.15c-0.07,0.3-0.1,0.54-0.53,0.54c-2.61-0.02-5.22-0.01-7.83-0.01
	c-0.06,0-0.12-0.03-0.24-0.06c0.24-1.04,0.47-2.08,0.71-3.12c2.08-8.98,4.15-17.97,6.24-26.95c0.27-1.14,0.06-0.93,1.15-0.94
	C277.21,24.82,279.69,24.83,282.26,24.83z M286.7,34.16c0.01-2.24-1.8-3.52-3.92-2.75c-1.63,0.59-2.79,2.28-2.8,4.06
	c-0.01,2.19,1.77,3.49,3.86,2.82C285.51,37.76,286.69,36.06,286.7,34.16z M151.12,45.55c-2.48-0.12-4.79-0.68-6.74-2.25
	c-2.94-2.38-3.65-5.54-2.88-9.08c1.16-5.31,5.86-9.34,11.31-9.88c2.33-0.23,4.59-0.03,6.71,1.01c3.82,1.88,5.63,5.77,4.59,10.11
	c-1.25,5.19-4.71,8.23-9.76,9.59C153.3,45.32,152.2,45.38,151.12,45.55z M156.13,34.23c0.02-2.14-1.71-3.49-3.71-2.88
	c-2,0.61-3.36,2.98-2.85,5.01c0.38,1.53,1.71,2.36,3.26,2.05C154.68,38.03,156.11,36.22,156.13,34.23z M194.55,36.85
	c-0.06,1.12,0.64,2.06,1.7,2.24c1.38,0.24,2.58-0.12,3.56-1.16c0.14-0.15,0.42-0.31,0.61-0.28c2.21,0.42,4.42,0.87,6.63,1.31
	c0.08,0.02,0.15,0.06,0.28,0.11c-0.77,1.49-1.76,2.76-3.07,3.73c-3.99,2.95-8.35,3.48-12.9,1.61c-3.4-1.39-5.26-4.73-5.1-8.61
	c0.23-5.73,4.23-10.24,10.12-11.33c2.52-0.47,5.01-0.36,7.34,0.84c2.63,1.35,3.98,3.65,4.31,6.5c0.17,1.45,0.02,2.93,0.01,4.4
	c0,0.5-0.22,0.66-0.74,0.66c-4-0.02-8-0.01-12.01-0.01C195.04,36.85,194.79,36.85,194.55,36.85z M200.44,32.56
	c-0.09-1.08-0.8-1.8-1.86-1.94c-1.33-0.17-2.81,0.71-3.21,1.94C197.06,32.56,198.72,32.56,200.44,32.56z M317.52,39.09
	c-1.36,2.51-3.29,4.31-5.88,5.37c-2.8,1.14-5.69,1.34-8.6,0.51c-4.47-1.27-6.95-5.03-6.59-9.65c0.48-6.18,5.46-10.43,11.15-11.01
	c1.7-0.17,3.37-0.1,5,0.45c3.51,1.18,5.27,3.78,5.66,7.33c0.15,1.38-0.04,2.8-0.05,4.21c0,0.49-0.24,0.57-0.68,0.57
	c-4.02-0.01-8.04-0.01-12.07-0.01c-0.25,0-0.5,0-0.74,0c0.01,1.19,0.71,2.08,1.78,2.25c1.35,0.22,2.54-0.14,3.5-1.17
	c0.15-0.15,0.42-0.32,0.6-0.29c2.23,0.42,4.46,0.88,6.69,1.33C317.35,38.99,317.4,39.03,317.52,39.09z M310.66,32.56
	c-0.14-1.16-0.89-1.87-2.01-1.96c-1.31-0.1-2.73,0.79-3.07,1.96C307.26,32.56,308.93,32.56,310.66,32.56z M255.6,36.85
	c0.14,1.47,0.97,2.29,2.3,2.32c1.19,0.02,2.23-0.34,3.04-1.27c0.13-0.14,0.39-0.28,0.56-0.25c2.21,0.42,4.42,0.87,6.63,1.31
	c0.08,0.02,0.15,0.06,0.35,0.16c-0.52,0.73-0.97,1.46-1.51,2.12c-3.4,4.09-10.09,5.47-14.82,3.06c-3.01-1.53-4.55-4.06-4.77-7.36
	c-0.4-6.15,3.77-11.29,10.09-12.46c2.61-0.48,5.17-0.35,7.55,0.96c2.67,1.48,3.88,3.9,4.16,6.81c0.12,1.31-0.05,2.64-0.06,3.96
	c-0.01,0.52-0.23,0.66-0.74,0.65c-4-0.02-8-0.01-12.01-0.01C256.14,36.85,255.89,36.85,255.6,36.85z M261.56,32.56
	c-0.12-1.15-0.87-1.86-2-1.95c-1.31-0.1-2.73,0.79-3.06,1.95C258.18,32.56,259.84,32.56,261.56,32.56z M334.25,16.55
	c-2.68,0.72-5.37,1.43-8.04,2.19c-0.23,0.06-0.46,0.4-0.53,0.65c-0.44,1.62-0.84,3.25-1.22,4.89c-0.1,0.42-0.26,0.59-0.72,0.57
	c-0.8-0.04-1.6-0.01-2.44-0.01c-0.5,2.16-0.99,4.28-1.51,6.51c0.99,0,1.9,0,2.87,0c-0.14,0.59-0.25,1.08-0.37,1.56
	c-0.44,1.86-0.97,3.7-1.29,5.58c-0.59,3.51,1.22,6.14,4.71,6.77c2.92,0.52,5.78,0.07,8.54-1.05c0.34-0.14,0.41-0.34,0.38-0.68
	c-0.09-1.03-0.13-2.06-0.2-3.08c-0.06-0.91-0.15-1.82-0.22-2.71c-0.91,0.19-1.73,0.41-2.56,0.51c-1.37,0.16-1.98-0.54-1.68-1.9
	c0.32-1.48,0.69-2.95,1-4.43c0.1-0.46,0.28-0.61,0.75-0.6c1.58,0.03,3.16,0.02,4.74,0c0.21,0,0.57-0.17,0.61-0.33
	c0.5-2.02,0.95-4.04,1.43-6.14c-1.96,0-3.87,0-5.88,0c0.65-2.81,1.27-5.54,1.9-8.29C334.37,16.54,334.3,16.53,334.25,16.55z
	 M223.89,16.59c-2.3,0.62-4.58,1.31-6.9,1.82c-1.12,0.25-1.58,0.77-1.77,1.86c-0.27,1.52-0.73,3.01-1.12,4.55
	c-0.86,0-1.68,0.02-2.5-0.01c-0.4-0.02-0.55,0.14-0.63,0.51c-0.28,1.27-0.58,2.54-0.87,3.81c-0.16,0.7-0.31,1.41-0.48,2.22
	c1.02,0,1.91,0,2.85,0c-0.08,0.36-0.14,0.62-0.2,0.88c-0.46,1.92-0.97,3.83-1.38,5.76c-0.79,3.73,0.95,6.55,4.59,7.25
	c2.94,0.56,5.83,0.1,8.59-1.07c0.18-0.08,0.37-0.4,0.36-0.6c-0.09-1.83-0.22-3.65-0.35-5.47c-0.01-0.13-0.07-0.26-0.1-0.35
	c-0.94,0.18-1.82,0.41-2.72,0.49c-1.17,0.11-1.74-0.57-1.5-1.72c0.33-1.58,0.71-3.16,1.05-4.74c0.08-0.37,0.25-0.47,0.6-0.46
	c1.24,0.02,2.49,0.01,3.73,0.01c1.66,0,1.67,0,2.05-1.64c0.37-1.59,0.73-3.18,1.12-4.85c-1.98,0-3.89,0-5.89,0
	c0.65-2.8,1.27-5.51,1.92-8.32C224.13,16.54,224.01,16.56,223.89,16.59z M164.41,44.85c1.75,0,3.5,0,5.24,0
	c4.09,0,8.17-0.01,12.26,0.01c0.46,0,0.69-0.11,0.75-0.59c0.05-0.44,0.19-0.86,0.29-1.29c0.35-1.51,0.69-3.02,1.06-4.64
	c-2.34,0-4.59,0-7.01,0c0.27-0.3,0.42-0.47,0.58-0.63c2.97-3.15,5.92-6.33,8.94-9.44c0.97-1,0.84-2.24,1.25-3.42
	c-6.55,0-12.96,0-19.43,0c-0.49,2.13-0.98,4.25-1.49,6.47c2.43,0,4.76,0,7.26,0c-0.26,0.29-0.41,0.46-0.56,0.62
	c-2.95,3.14-5.91,6.29-8.85,9.43c-0.17,0.18-0.38,0.38-0.44,0.6c-0.24,0.91-0.42,1.83-0.65,2.87
	C163.95,44.85,164.18,44.85,164.41,44.85z M230.06,44.14c3.53,1.77,7.21,1.78,10.84,0.37c3.43-1.33,5.04-4.38,4.43-8.01
	c-0.33-1.95-1.6-3.16-3.34-3.89c-1.14-0.48-2.34-0.83-3.5-1.26c-0.29-0.11-0.62-0.23-0.81-0.45c-0.17-0.18-0.29-0.55-0.21-0.77
	c0.07-0.22,0.39-0.44,0.64-0.49c0.72-0.15,1.45,0.34,1.77,1.13c0.09,0.23,0.16,0.46,0.25,0.72c2.53-0.35,5.03-0.7,7.57-1.06
	c-0.51-2.41-1.75-4.18-3.92-5.19c-2.79-1.3-5.71-1.32-8.65-0.58c-4.04,1.03-6.18,4.05-5.85,8.17c0.15,1.79,1,3.16,2.62,3.97
	c0.69,0.34,1.45,0.56,2.19,0.8c0.82,0.26,1.66,0.47,2.49,0.72c0.37,0.11,0.71,0.39,0.5,0.78c-0.13,0.25-0.53,0.47-0.83,0.49
	c-0.59,0.03-1.03-0.34-1.32-0.83c-0.14-0.23-0.23-0.49-0.37-0.79c-2.7,0.31-5.41,0.63-8.17,0.95
	C226.83,41.27,227.97,43.09,230.06,44.14z M130.21,44.59c0.45-1.94,0.9-3.89,1.35-5.83c0.65-2.83,2.42-4.53,5.28-4.96
	c0.95-0.14,1.93-0.15,2.9-0.17c0.42-0.01,0.63-0.1,0.73-0.55c0.35-1.45,0.77-2.88,1.15-4.32c0.35-1.33,0.7-2.66,1.06-4.05
	c-3.8-0.53-6.56,1-8.76,3.91c0.28-1.24,0.56-2.47,0.84-3.75c-2.86,0-5.66,0-8.5,0c-1.53,6.65-3.07,13.28-4.61,19.97
	c2.88,0,5.66,0,8.46,0C130.17,44.71,130.2,44.65,130.21,44.59z M336.82,44.82c2.88,0,5.67,0,8.51,0c1.54-6.65,3.07-13.28,4.61-19.96
	c-2.89,0-5.66,0-8.51,0C339.89,31.52,338.36,38.14,336.82,44.82z M351.74,19.1c0.06-2.5-2.01-4.55-4.63-4.58
	c-2.57-0.03-4.62,1.9-4.67,4.39c-0.06,2.62,1.87,4.57,4.55,4.61C349.65,23.57,351.68,21.69,351.74,19.1z"/>
<g>
	<linearGradient id="SVGID_1_" gradientUnits="userSpaceOnUse" x1="73.4231" y1="12.625" x2="106.5051" y2="12.625">
		<stop  offset="0" style="stop-color:#8530F2"/>
		<stop  offset="0.1066" style="stop-color:#822CED"/>
		<stop  offset="0.241" style="stop-color:#7821DD"/>
		<stop  offset="0.3443" style="stop-color:#6E15CC"/>
		<stop  offset="0.5864" style="stop-color:#5500A0"/>
		<stop  offset="0.6534" style="stop-color:#4F0090"/>
		<stop  offset="0.7537" style="stop-color:#48007F"/>
		<stop  offset="0.8637" style="stop-color:#440075"/>
		<stop  offset="1" style="stop-color:#430072"/>
	</linearGradient>
	<path class="st1" d="M106.45,21.95c-0.08-0.13-0.92-1.39-3.06-2.89C91.31,8.39,77.15,3.68,74.24,2.79c-0.24-0.07-0.48,0-0.65,0.18
		c-0.17,0.19-0.21,0.44-0.11,0.67c3.39,7.8,7.74,10.53,7.92,10.65c0.05,0.03,0.12,0.05,0.18,0.05c11.98,0.12,18.48,3.22,21.66,5.52
		c0.9,0.81,1.8,1.65,2.67,2.53c0.07,0.07,0.16,0.1,0.25,0.1c0.08,0,0.15-0.03,0.22-0.08C106.51,22.3,106.55,22.1,106.45,21.95z"/>
	
		<linearGradient id="SVGID_00000007399452668739154840000015887621548697981089_" gradientUnits="userSpaceOnUse" x1="60.2911" y1="31.9778" x2="120.3508" y2="31.9778">
		<stop  offset="0" style="stop-color:#430072"/>
		<stop  offset="0.2386" style="stop-color:#500093"/>
		<stop  offset="0.3692" style="stop-color:#5500A0"/>
		<stop  offset="0.5172" style="stop-color:#620BB6"/>
		<stop  offset="0.6725" style="stop-color:#6B12C6"/>
		<stop  offset="0.7923" style="stop-color:#6E15CC"/>
		<stop  offset="0.8528" style="stop-color:#7821DC"/>
		<stop  offset="0.9357" style="stop-color:#822CEC"/>
		<stop  offset="1" style="stop-color:#8530F2"/>
	</linearGradient>
	<path style="fill:url(#SVGID_00000007399452668739154840000015887621548697981089_);" d="M74.81,53.32l-3.85-0.26
		c-1.07-0.07-1.77-1.13-1.47-2.16c0.73-2.46,3.93-4.35,3.93-4.35c-3.16,2.93,6.12-11.21,6.12-11.21l0.32-8.37L60.29,25.7v-3.17
		c22.75-1.76,36.53,6.57,36.53,6.57c0.62-3.91,5.19-4.17,5.19-4.17c-0.3-1.28-6.9-3.06-12.05-2.44c-5.15,0.61-11.18-0.35-11.18-0.35
		c-12.49-2.1-14.94-11.67-14.94-11.67l3.28,2.63l5.72,2.27l5.94,0.89l9.14-0.59l14.19,3.55l5.28,3.65
		c11.18,2.96,15.22,12.32,11.75,16.04c-3.47,3.72-11.9,3.47-16.19,1.9s-7.18,0.49-7.18,0.49c-2.4,4.53-6.37,6.31-6.37,6.31
		c4.53,0.39,2.93,3.99,2.93,3.99c-1.19,2.96-8.43,1.55-8.43,1.55"/>
	
		<linearGradient id="SVGID_00000083772439355381899610000005681876116469447318_" gradientUnits="userSpaceOnUse" x1="82.6577" y1="23.4995" x2="89.6956" y2="11.3095">
		<stop  offset="0.0184" style="stop-color:#F6F6F6"/>
		<stop  offset="0.346" style="stop-color:#966FF2"/>
		<stop  offset="0.5619" style="stop-color:#8530F2"/>
		<stop  offset="0.6394" style="stop-color:#7F29E9"/>
		<stop  offset="0.857" style="stop-color:#731AD4"/>
		<stop  offset="1" style="stop-color:#6E15CC"/>
	</linearGradient>
	<path style="fill:url(#SVGID_00000083772439355381899610000005681876116469447318_);" d="M108.61,23.58
		c-4.16-4.38-7.88-5.9-9.72-6.42c-0.69-0.19-1.37-0.46-2.04-0.72c-5.61-2.18-15.16-2.21-17.44-2.18c-0.03,0-0.06,0-0.1,0
		c-0.04,0-0.07,0.01-0.1,0.01c-8.62,0.54-14.83-3.8-14.89-3.84c-0.15-0.1-0.34-0.08-0.46,0.05c-0.12,0.13-0.13,0.34-0.03,0.49
		c0.07,0.1,1.67,2.42,5.41,4.76c3.41,2.13,9.3,4.66,18.08,4.66c0.19,0,0.38,0,0.56,0c16.22,0,20.18,3.7,20.23,3.75
		c0.07,0.07,0.16,0.1,0.25,0.1c0.09,0,0.19-0.04,0.26-0.12C108.75,23.97,108.75,23.73,108.61,23.58z"/>
	
		<linearGradient id="SVGID_00000127019284384663069000000002408666387427400117_" gradientUnits="userSpaceOnUse" x1="102.4369" y1="24.8818" x2="102.4369" y2="28.5641">
		<stop  offset="0" style="stop-color:#430072"/>
		<stop  offset="0.02" style="stop-color:#450078"/>
		<stop  offset="0.1483" style="stop-color:#530299"/>
		<stop  offset="0.2183" style="stop-color:#5803A6"/>
		<stop  offset="0.5935" style="stop-color:#6E15CC"/>
	</linearGradient>
	<path style="fill:url(#SVGID_00000127019284384663069000000002408666387427400117_);" d="M96.94,28.56c0,0,0.6-2.88,5.07-3.63
		c0,0,2.3-0.69,5.91,2.99"/>
	<path class="st5" d="M76.88,41.46"/>
	
		<linearGradient id="SVGID_00000038394970723595606630000018126006457750356927_" gradientUnits="userSpaceOnUse" x1="18.7574" y1="42.2982" x2="54.5833" y2="42.2982">
		<stop  offset="0.0953" style="stop-color:#F9B233"/>
		<stop  offset="0.206" style="stop-color:#E39A4B"/>
		<stop  offset="0.4408" style="stop-color:#AC5B88"/>
		<stop  offset="0.6791" style="stop-color:#6E15CC"/>
		<stop  offset="0.8681" style="stop-color:#5500A0"/>
		<stop  offset="0.9148" style="stop-color:#500093"/>
		<stop  offset="1" style="stop-color:#430072"/>
	</linearGradient>
	<path style="fill:url(#SVGID_00000038394970723595606630000018126006457750356927_);" d="M30.93,37.88
		c0.04,0.94-0.83,1.73-1.73,1.73c-0.97,0-1.69-0.79-1.73-1.73c-0.04-0.94,0.83-1.73,1.73-1.73C30.16,36.15,30.88,36.94,30.93,37.88z
		 M20.47,22.5c-0.9,0-1.75,0.79-1.71,1.71c0.04,0.93,0.75,1.71,1.71,1.71c0.9,0,1.75-0.79,1.71-1.71
		C22.14,23.28,21.43,22.5,20.47,22.5z M32.63,22.5c-0.9,0-1.75,0.79-1.71,1.71c0.04,0.93,0.75,1.71,1.71,1.71
		c0.9,0,1.75-0.79,1.71-1.71C34.3,23.28,33.59,22.5,32.63,22.5z M45.73,32.68c0.91,0,1.78-0.8,1.73-1.73
		c-0.04-0.94-0.76-1.73-1.73-1.73c-0.91,0-1.78,0.8-1.73,1.73C44.04,31.89,44.76,32.68,45.73,32.68z M52.9,58.63
		c-0.91,0.04-1.68,0.74-1.68,1.68c0,0.03,0,0.07,0,0.1c0,0.88,0.77,1.72,1.68,1.68c0.91-0.04,1.68-0.74,1.68-1.68
		c0-0.03,0-0.07,0-0.1C54.58,59.43,53.81,58.59,52.9,58.63z M45.51,44.82c-0.04-0.94-0.76-1.73-1.73-1.73
		c-0.91,0-1.78,0.8-1.73,1.73c0.04,0.94,0.76,1.73,1.73,1.73C44.68,46.55,45.55,45.75,45.51,44.82z M37.71,49.96
		c-0.92,0-1.8,0.81-1.76,1.76c0.04,0.95,0.77,1.76,1.76,1.76c0.92,0,1.8-0.81,1.76-1.76C39.43,50.77,38.7,49.96,37.71,49.96z
		 M44.4,58.63c-0.91,0.04-1.68,0.74-1.68,1.68c0,0.03,0,0.07,0,0.1c0,0.88,0.77,1.72,1.68,1.68c0.91-0.04,1.68-0.74,1.68-1.68
		c0-0.03,0-0.07,0-0.1C46.08,59.43,45.31,58.59,44.4,58.63z M39.74,36.15c-0.91,0-1.78,0.8-1.73,1.73c0.04,0.94,0.76,1.73,1.73,1.73
		c0.91,0,1.78-0.8,1.73-1.73C41.43,36.94,40.71,36.15,39.74,36.15z"/>
	
		<linearGradient id="SVGID_00000133496018784052093960000014713063265426255747_" gradientUnits="userSpaceOnUse" x1="39.2735" y1="41.9826" x2="93.133" y2="41.9826">
		<stop  offset="0.0617" style="stop-color:#6E15CC"/>
		<stop  offset="0.5286" style="stop-color:#5500A0"/>
		<stop  offset="0.6608" style="stop-color:#4E008F"/>
		<stop  offset="0.8654" style="stop-color:#46007A"/>
		<stop  offset="1" style="stop-color:#430072"/>
	</linearGradient>
	<path style="fill:url(#SVGID_00000133496018784052093960000014713063265426255747_);" d="M70.07,48.28c0,0.96-0.78,1.73-1.73,1.73
		H47.25c-0.93,0-1.68,0.8-1.68,1.8c0,0.99,0.75,1.8,1.68,1.8h18.01c0.06,0,0.12-0.01,0.18-0.02h0.41l5.37-0.11h0.57l-0.36,0.14
		l-1.32,0.46c-0.44,0.15-0.91,0.26-1.3,0.36l-1.36,0.29c-0.97,0.2-1.85,0.52-2.69,0.98c-0.37,0.2-0.82,0.45-1.25,0.73
		c-0.49,0.31-0.88,0.58-1.24,0.85c-0.47,0.34-0.87,0.68-1.23,1.01c-0.38,0.34-0.78,0.73-1.18,1.21l0,0c0,0-0.3,0.25-0.16,0.79
		c0,0,0.03,0.19,0.19,0.38c0.04,0.07,0.1,0.12,0.17,0.16c0.01,0,0.01,0.01,0.02,0.01c0.05,0.03,0.11,0.06,0.17,0.08
		c0.53,0.24,1.05,0.39,1.5,0.51c0.51,0.12,1.03,0.2,1.63,0.26c0.49,0.04,1.01,0.04,1.59,0.02c0.24-0.02,0.49-0.04,0.75-0.07
		c0.25-0.03,0.52-0.07,0.8-0.11c0.56-0.11,1.05-0.25,1.51-0.42c0.46-0.19,0.94-0.42,1.41-0.7c0.41-0.25,0.82-0.52,1.22-0.79
		c0.44-0.29,0.89-0.6,1.35-0.87l1.28-0.82l1.26-0.86l1.21-0.93l1.19-0.96c0.65-0.55,1.25-1.09,1.82-1.62l4.43,0.04
		c3.8,0.03,6.72-0.03,7.62-0.22c1.26-0.26,2.26-1.34,2.31-2.68c0.09-2.71-3.73-3.03-3.73-3.03c-6.01,1.13-7.4-1.47-7.4-1.47
		c-0.01-0.17-0.07-0.28-0.13-0.35c-1.25-2.65-3.39-3.85-4.99-4.38c5.63-1.45,5.71-8.56,5.71-8.64c0-6.52-3.87-8.6-6.17-9.43
		c-0.89-0.32-3.05-0.94-4.1-0.94c-2.51-0.19-4.26-0.22-6.06-0.21c-0.01,0-0.02,0-0.03,0H40.95c-0.93,0-1.68,0.78-1.68,1.73
		c0,0.96,0.75,1.73,1.68,1.73h30.93c0.97,0,1.76,0.79,1.76,1.76l0,0c0,0.97-0.79,1.76-1.76,1.76H53.05c-0.93,0-1.68,0.78-1.68,1.73
		c0,0.96,0.75,1.73,1.68,1.73h24.07c0.96,0,1.73,0.78,1.73,1.73l0,0c0,0.96-0.78,1.73-1.73,1.73H48.19c-1.03,0-1.86,0.78-1.86,1.73
		c0,0.96,0.83,1.73,1.86,1.73h25.03c0.96,0,1.73,0.78,1.73,1.73l0,0c0,0.96-0.78,1.73-1.73,1.73H50.26c-0.93,0-1.68,0.78-1.68,1.73
		s0.75,1.73,1.68,1.73h18.08C69.3,46.55,70.07,47.33,70.07,48.28L70.07,48.28z"/>
	
		<linearGradient id="SVGID_00000088852488095318208120000015793971882003665589_" gradientUnits="userSpaceOnUse" x1="79.5453" y1="49.7894" x2="79.5453" y2="41.4589">
		<stop  offset="0.0776" style="stop-color:#966FF2"/>
		<stop  offset="0.5619" style="stop-color:#8530F2"/>
		<stop  offset="0.6394" style="stop-color:#7F29E9"/>
		<stop  offset="0.857" style="stop-color:#731AD4"/>
		<stop  offset="1" style="stop-color:#6E15CC"/>
	</linearGradient>
	<path style="fill:url(#SVGID_00000088852488095318208120000015793971882003665589_);" d="M76.88,41.46c0,0,6.17,1.32,5.23,8.33
		C82.11,49.79,81.36,44.81,76.88,41.46z"/>
	
		<linearGradient id="SVGID_00000115493092884767109380000003144638393655460230_" gradientUnits="userSpaceOnUse" x1="71.1533" y1="31.9138" x2="82.6261" y2="31.9138">
		<stop  offset="0.0776" style="stop-color:#966FF2"/>
		<stop  offset="0.5619" style="stop-color:#8530F2"/>
		<stop  offset="0.6394" style="stop-color:#7F29E9"/>
		<stop  offset="0.857" style="stop-color:#731AD4"/>
		<stop  offset="1" style="stop-color:#6E15CC"/>
	</linearGradient>
	<path style="fill:url(#SVGID_00000115493092884767109380000003144638393655460230_);" d="M76.88,41.46c0,0,6.29-1.19,5.71-10.81
		c0,0-0.6-8.16-11.43-8.28c0,0,6.47,1.67,8.55,7.56c1.09,3.08,0.65,6.49-1.04,9.29C78.19,40,77.61,40.78,76.88,41.46z"/>
</g>
</svg>
